<svg width="20" height="20" viewBox="0 0 20 20" fill="none" xmlns="http://www.w3.org/2000/svg">
<path d="M9.99996 2.5V17.5C7.08329 17.5 4.91621 13.6833 4.91621 13.6833H2.49996C2.27895 13.6833 2.06698 13.5955 1.9107 13.4393C1.75442 13.283 1.66663 13.071 1.66663 12.85V7.0875C1.66663 6.86649 1.75442 6.65452 1.9107 6.49824C2.06698 6.34196 2.27895 6.25417 2.49996 6.25417H4.91621C4.91621 6.25417 7.08329 2.5 9.99996 2.5Z" stroke="#482727" stroke-width="1.5" stroke-linejoin="round"/>
<path d="M13.3333 6.25C13.5936 6.48297 13.8287 6.74259 14.0349 7.02458C14.6647 7.8886 15.0027 8.93083 14.9999 10C14.9999 11.1058 14.6474 12.1279 14.0508 12.9542C13.8408 13.2444 13.6002 13.5112 13.3333 13.75" stroke="#482727" stroke-width="1.5" stroke-linecap="round" stroke-linejoin="round"/>
<path d="M14.265 17.1608C16.7017 15.7067 18.3333 13.0437 18.3333 9.99999C18.3333 7.00333 16.7517 4.37666 14.3779 2.90833" stroke="#482727" stroke-width="1.5" stroke-linecap="round"/>
</svg>
